# This file uses centimeters as units for non-parametric coordinates.

mtllib SM_SIGN_LEFT_RIGHT.mtl
g default
v -78.351013 -24.553963 89.046707
v -36.304642 -24.553963 89.046707
v -78.351013 -24.253082 89.046707
v -36.304642 -24.253082 89.046707
v -78.351013 -24.253082 57.995811
v -36.304642 -24.253082 57.995811
v -78.351013 -24.553963 57.995811
v -36.304642 -24.553963 57.995811
vt 0.562618 0.967216
vt 0.911186 0.967216
vt 0.556993 0.967216
vt 0.916810 0.967215
vt 0.562618 0.773385
vt 0.911186 0.773386
vt 0.562618 0.780787
vt 0.911186 0.780787
vt 0.916810 0.780787
vt 0.556993 0.780787
vt 0.911186 0.974617
vt 0.562618 0.974617
vt 0.438748 0.986409
vt 0.036615 0.986409
vt 0.036615 0.765620
vt 0.438748 0.765620
vn 0.000000 0.000000 1.000000
vn 0.000000 0.000000 1.000000
vn 0.000000 0.000000 1.000000
vn 0.000000 0.000000 1.000000
vn 0.000000 1.000000 0.000000
vn 0.000000 1.000000 0.000000
vn 0.000000 1.000000 0.000000
vn 0.000000 1.000000 0.000000
vn 0.000000 0.000000 -1.000000
vn 0.000000 0.000000 -1.000000
vn 0.000000 0.000000 -1.000000
vn 0.000000 0.000000 -1.000000
vn 0.000000 -1.000000 0.000000
vn 0.000000 -1.000000 0.000000
vn 0.000000 -1.000000 0.000000
vn 0.000000 -1.000000 0.000000
vn 1.000000 0.000000 0.000000
vn 1.000000 0.000000 0.000000
vn 1.000000 0.000000 0.000000
vn 1.000000 0.000000 0.000000
vn -1.000000 0.000000 0.000000
vn -1.000000 0.000000 0.000000
vn -1.000000 0.000000 0.000000
vn -1.000000 0.000000 0.000000
s off
g pCube3
usemtl lambert7SG
f 1/1/1 2/2/2 4/11/3 3/12/4
f 3/13/5 4/14/6 6/15/7 5/16/8
f 5/5/9 6/6/10 8/8/11 7/7/12
f 7/7/13 8/8/14 2/2/15 1/1/16
f 2/2/17 8/8/18 6/9/19 4/4/20
f 7/7/21 1/1/22 3/3/23 5/10/24
