# This file uses centimeters as units for non-parametric coordinates.

mtllib SM_TUNNEL_WALL_RIGHT.mtl
g default
v 478.037127 83.963028 -0.089183
v 180.931063 83.962967 -0.089183
v 513.961016 75.961281 -0.089183
v 542.156344 61.231354 -0.089183
v 556.188052 33.576401 -0.089183
v 560.132388 -3.176773 -0.089183
v 560.631839 -286.479965 -0.089183
v 181.089480 83.962112 92.962204
v 478.195559 83.962204 92.962204
v 514.107867 75.901871 92.962204
v 542.248965 61.102814 92.962204
v 556.211795 33.419724 92.962204
v 560.134280 -3.335037 92.962204
v 560.633700 -286.638412 92.962204
vt 0.593650 0.499341
vt 0.371989 0.499341
vt 0.371989 0.375082
vt 0.593650 0.375081
vt 0.338510 0.499341
vt 0.338510 0.375081
vt 0.300496 0.499341
vt 0.300496 0.375081
vt 0.262075 0.499341
vt 0.262075 0.375081
vt 0.224398 0.499341
vt 0.224398 0.375081
vt 0.001331 0.499341
vt 0.001331 0.375081
vn 0.000000 1.000000 0.000000
vn 0.000000 1.000000 0.000000
vn 0.000000 1.000000 0.000000
vn 0.000000 1.000000 0.000000
vn 0.218205 0.975903 -0.000042
vn 0.218205 0.975903 -0.000042
vn 0.218205 0.975903 -0.000042
vn 0.218205 0.975903 -0.000042
vn 0.464247 0.885706 0.000297
vn 0.464247 0.885706 0.000297
vn 0.464247 0.885706 0.000297
vn 0.464247 0.885706 0.000297
vn 0.892318 0.451408 0.000134
vn 0.892318 0.451408 0.000134
vn 0.892318 0.451408 0.000134
vn 0.892318 0.451408 0.000134
vn 0.994322 0.106412 0.000043
vn 0.994322 0.106412 0.000043
vn 0.994322 0.106412 0.000043
vn 0.994322 0.106412 0.000043
vn 0.999999 0.001763 -0.000017
vn 0.999998 0.001763 -0.000017
vn 0.999999 0.001763 -0.000017
vn 0.999998 0.001763 -0.000017
s off
g polySurface84 polySurface79 polySurface76 polySurface40polySurface18
usemtl SM_TUNNEL_STRAIGHT_RIGHT_WALL_SM_TUNNEL_STRAIGHT_LEFT_WALL_initialShadingGroup
f 8/1/1 9/2/2 1/3/3 2/4/4
f 1/3/5 9/2/6 10/5/7 3/6/8
f 3/6/9 10/5/10 11/7/11 4/8/12
f 4/8/13 11/7/14 12/9/15 5/10/16
f 5/10/17 12/9/18 13/11/19 6/12/20
f 6/12/21 13/11/22 14/13/23 7/14/24
