# This file uses centimeters as units for non-parametric coordinates.

mtllib SM_TUNNEL_FLOOR.mtl
g default
v 181.049914 85.999634 -2.274881
v 180.778888 171.397400 -2.274881
v 478.032626 85.999725 -2.274881
v 478.032336 171.397430 -2.274881
v 514.767306 77.842453 -2.274881
v 546.370333 157.177246 -2.274881
v 543.922732 62.366951 -2.274881
v 612.956424 112.637444 -2.274881
v 558.347796 33.761765 -2.274881
v 642.715121 46.987900 -2.274881
v 562.318438 -3.295517 -2.274881
v 647.705264 -3.840805 -2.274881
v 562.817919 -286.598633 -2.274881
v 648.204776 -285.223450 -2.274881
v 180.926562 83.809021 -0.089183
v 478.032626 83.809082 -0.089183
v 513.956515 75.807335 -0.089183
v 542.151843 61.077408 -0.089183
v 556.183551 33.422455 -0.089183
v 560.127887 -3.330719 -0.089183
v 560.627337 -286.633911 -0.089183
v 478.032351 173.585327 -0.089183
v 180.926562 173.585297 -0.089183
v 547.180026 159.209822 -0.089183
v 614.725024 113.925369 -0.089183
v 644.876620 47.326706 -0.089183
v 649.892932 -3.805588 -0.089183
v 650.392291 -285.188171 -0.089183
vt 0.128344 0.000540
vt 0.128344 0.099991
vt 0.122391 0.099991
vt 0.122391 0.000540
vt 0.008437 0.000540
vt 0.008437 0.099991
vt 0.001971 0.099991
vt 0.001971 0.000540
vt 0.128344 0.199744
vt 0.122391 0.199745
vt 0.008437 0.199745
vt 0.001971 0.199745
vt 0.128344 0.299498
vt 0.122391 0.299498
vt 0.008437 0.299498
vt 0.001971 0.299498
vt 0.128344 0.399251
vt 0.122391 0.399251
vt 0.008437 0.399251
vt 0.001971 0.399251
vt 0.128344 0.499005
vt 0.122391 0.499005
vt 0.008437 0.499005
vt 0.001971 0.499005
vt 0.128344 0.598903
vt 0.122391 0.598903
vt 0.008438 0.598903
vt 0.001971 0.598903
vn 0.000000 0.706310 0.707903
vn 0.000000 0.706310 0.707903
vn 0.000000 0.706310 0.707903
vn 0.000000 0.706310 0.707903
vn 0.000000 -0.706751 0.707462
vn 0.000000 -0.706751 0.707462
vn 0.000000 -0.706751 0.707462
vn 0.000000 -0.706751 0.707462
vn 0.000000 0.000000 1.000000
vn 0.000000 0.000000 1.000000
vn 0.000000 0.000000 1.000000
vn 0.000000 0.000000 1.000000
vn 0.154749 0.695823 0.701344
vn 0.154749 0.695823 0.701344
vn 0.154749 0.695823 0.701344
vn 0.154749 0.695823 0.701344
vn -0.145222 -0.698213 0.701006
vn -0.145222 -0.698213 0.701006
vn -0.145222 -0.698213 0.701006
vn -0.145222 -0.698213 0.701006
vn 0.000000 0.000000 1.000000
vn 0.000000 0.000000 1.000000
vn 0.000000 0.000000 1.000000
vn 0.000000 0.000000 1.000000
vn 0.338163 0.642067 0.688038
vn 0.338163 0.642067 0.688038
vn 0.338163 0.642067 0.688038
vn 0.338163 0.642067 0.688038
vn -0.401535 -0.599596 0.692282
vn -0.401535 -0.599596 0.692282
vn -0.401535 -0.599596 0.692282
vn -0.401535 -0.599596 0.692282
vn 0.000000 -0.000000 1.000000
vn 0.000000 -0.000000 1.000000
vn 0.000000 -0.000000 1.000000
vn 0.000000 -0.000000 1.000000
vn 0.640046 0.323740 0.696803
vn 0.640046 0.323740 0.696803
vn 0.640046 0.323740 0.696803
vn 0.640046 0.323740 0.696803
vn -0.653015 -0.295825 0.697179
vn -0.653015 -0.295825 0.697179
vn -0.653015 -0.295825 0.697179
vn -0.653015 -0.295825 0.697179
vn 0.000000 0.000000 1.000000
vn 0.000000 0.000000 1.000000
vn 0.000000 0.000000 1.000000
vn 0.000000 0.000000 1.000000
vn 0.703196 0.075406 0.706986
vn 0.703196 0.075406 0.706986
vn 0.703196 0.075406 0.706986
vn 0.703196 0.075406 0.706986
vn -0.704246 -0.069115 0.706584
vn -0.704246 -0.069115 0.706584
vn -0.704246 -0.069115 0.706584
vn -0.704246 -0.069115 0.706584
vn 0.000000 0.000000 1.000000
vn 0.000000 0.000000 1.000000
vn 0.000000 0.000000 1.000000
vn 0.000000 0.000000 1.000000
vn 0.706308 0.001245 0.707903
vn 0.706308 0.001245 0.707903
vn 0.706308 0.001245 0.707903
vn 0.706308 0.001245 0.707903
vn -0.706788 -0.001255 0.707424
vn -0.706788 -0.001255 0.707424
vn -0.706788 -0.001255 0.707424
vn -0.706788 -0.001255 0.707424
vn 0.000000 -0.000000 1.000000
vn 0.000000 -0.000000 1.000000
vn 0.000000 -0.000000 1.000000
vn 0.000000 -0.000000 1.000000
s off
g polySurface81 polySurface40polySurface18
usemtl SM_TUNNEL_STRAIGHT_FLOOR_lambert4SG
f 15/1/1 16/2/2 3/3/3 1/4/4
f 2/5/5 4/6/6 22/7/7 23/8/8
f 1/4/9 3/3/10 4/6/11 2/5/12
f 3/3/13 16/2/14 17/9/15 5/10/16
f 22/7/17 4/6/18 6/11/19 24/12/20
f 4/6/21 3/3/22 5/10/23 6/11/24
f 5/10/25 17/9/26 18/13/27 7/14/28
f 24/12/29 6/11/30 8/15/31 25/16/32
f 6/11/33 5/10/34 7/14/35 8/15/36
f 7/14/37 18/13/38 19/17/39 9/18/40
f 25/16/41 8/15/42 10/19/43 26/20/44
f 8/15/45 7/14/46 9/18/47 10/19/48
f 9/18/49 19/17/50 20/21/51 11/22/52
f 26/20/53 10/19/54 12/23/55 27/24/56
f 10/19/57 9/18/58 11/22/59 12/23/60
f 11/22/61 20/21/62 21/25/63 13/26/64
f 27/24/65 12/23/66 14/27/67 28/28/68
f 12/23/69 11/22/70 13/26/71 14/27/72
