# This file uses centimeters as units for non-parametric coordinates.

mtllib SM_TUNNEL_STRAIGHT_LEFT_WALL.mtl
g default
v 420.723083 -291.183319 -0.089183
v 420.723053 200.993164 -0.089183
v 420.723022 200.993179 93.623360
v 420.723114 -291.183289 93.623360
vt 0.000800 0.498994
vt 0.000713 0.374970
vt 0.600040 0.374970
vt 0.600040 0.498994
vn 1.000000 0.000000 0.000000
vn 1.000000 0.000000 0.000000
vn 1.000000 0.000000 0.000000
vn 1.000000 0.000000 0.000000
s off
g polySurface45polySurface43polySurface41polySurface17
usemtl SM_TUNNEL_STRAIGHT_RIGHT_WALL_initialShadingGroup
f 4/1/1 1/2/2 2/3/3 3/4/4
