# This file uses centimeters as units for non-parametric coordinates.

mtllib SM_TUNNEL_STRAIGHT_FLOOR.mtl
g default
v 508.308746 -291.059967 -2.274881
v 422.910980 -291.330994 -2.274881
v 508.308655 200.993439 -2.274881
v 422.910950 200.993149 -2.274881
v 510.499298 200.993439 -0.089183
v 510.499359 -291.183319 -0.089183
v 420.723083 -291.183319 -0.089183
v 420.723053 200.993164 -0.089183
vt -0.000202 0.602669
vt -0.000202 0.002026
vt 0.006895 0.002026
vt 0.006895 0.602669
vt 0.119076 0.602669
vt 0.119076 0.002026
vt 0.125592 0.002026
vt 0.125592 0.602669
vn -0.706310 0.000000 0.707903
vn -0.706310 0.000000 0.707903
vn -0.706310 0.000000 0.707903
vn -0.706310 0.000000 0.707903
vn 0.706751 0.000000 0.707462
vn 0.706751 0.000000 0.707462
vn 0.706751 0.000000 0.707462
vn 0.706751 0.000000 0.707462
vn 0.000000 0.000000 1.000000
vn 0.000000 0.000000 1.000000
vn 0.000000 0.000000 1.000000
vn 0.000000 0.000000 1.000000
s off
g polySurface40polySurface17
usemtl lambert4SG
f 6/1/1 5/2/2 3/3/3 1/4/4
f 2/5/5 4/6/6 8/7/7 7/8/8
f 1/4/9 3/3/10 4/6/11 2/5/12
