# This file uses centimeters as units for non-parametric coordinates.

mtllib SM_TUNNEL_DECLINE_CEILING_02.mtl
g default
v -494.200623 256.257355 173.037567
v -492.012878 256.204041 175.223297
v -406.615173 256.301971 175.223297
v -406.615173 -118.908066 -73.723587
v -492.012878 -119.084778 -73.723587
v -494.200623 -118.988495 -75.909309
v -404.424500 -118.988419 -75.909309
v -404.424500 256.257507 173.037567
vt 0.000037 -0.000117
vt 0.006057 -0.000117
vt 0.006057 0.600003
vt 0.000037 0.600003
vt 0.118925 0.600003
vt 0.118925 -0.000117
vt 0.124132 0.600003
vt 0.124132 -0.000117
vn 0.648290 0.420899 -0.634479
vn 0.648290 0.420899 -0.634479
vn 0.648290 0.420899 -0.634479
vn 0.648290 0.420899 -0.634479
vn -0.000889 0.552824 -0.833298
vn -0.000889 0.552824 -0.833298
vn -0.000889 0.552824 -0.833298
vn -0.000889 0.552824 -0.833297
vn -0.632062 0.428418 -0.645721
vn -0.632062 0.428418 -0.645721
vn -0.632062 0.428418 -0.645721
vn -0.632062 0.428418 -0.645721
s off
g polySurface65polySurface64polySurface56polySurface54polySurface52
usemtl lambert5SG
f 1/1/1 2/2/2 5/3/3 6/4/4
f 4/5/5 5/3/6 2/2/7 3/6/8
f 7/7/9 4/5/10 3/6/11 8/8/12
