# This file uses centimeters as units for non-parametric coordinates.

mtllib SM_TUNNEL_DECLINE_FLOOR_03.mtl
g default
v -406.615051 -651.625488 -217.299713
v -492.012878 -651.896484 -217.299713
v -406.615173 -202.786713 -171.807541
v -492.012878 -202.963425 -171.807541
v -406.615173 -305.709900 -207.693878
v -492.012756 -305.908264 -207.693878
v -406.615173 -400.350677 -217.299744
v -492.012756 -400.568909 -217.299744
v -404.424500 -400.449921 -215.114044
v -404.424500 -651.748779 -215.114014
v -404.424500 -305.800110 -205.508179
v -404.424500 -202.867065 -169.621826
v -494.200745 -651.748779 -215.114014
v -494.200745 -400.449982 -215.114044
v -494.200745 -305.800171 -205.508179
v -494.200745 -202.867142 -169.621826
vt 0.002060 0.599049
vt 0.002060 0.268197
vt 0.008187 0.268197
vt 0.008187 0.599049
vt 0.121730 0.599049
vt 0.121730 0.268197
vt 0.127832 0.268197
vt 0.127832 0.599049
vt 0.121730 0.144256
vt 0.008187 0.144256
vt 0.008187 0.000890
vt 0.121730 0.000890
vt 0.127832 0.144256
vt 0.127832 0.000890
vt 0.002060 0.144256
vt 0.002060 0.000890
vn -0.706312 0.000000 0.707900
vn -0.706600 -0.019708 0.707339
vn -0.706599 -0.019574 0.707344
vn -0.706312 0.000000 0.707900
vn 0.706745 0.000000 0.707468
vn 0.706149 -0.018305 0.707826
vn 0.706042 -0.020999 0.707859
vn 0.706745 0.000000 0.707468
vn 0.000000 0.000000 1.000000
vn 0.000068 -0.027821 0.999613
vn 0.000068 -0.027690 0.999617
vn 0.000000 0.000000 1.000000
vn 0.000504 -0.224208 0.974541
vn 0.000505 -0.224535 0.974466
vn 0.000723 -0.329201 0.944260
vn 0.000723 -0.329201 0.944260
vn 0.692222 -0.171177 0.701090
vn 0.695017 -0.150875 0.702986
vn 0.680203 -0.241299 0.692170
vn 0.680203 -0.241299 0.692170
vn -0.701030 -0.153172 0.696488
vn -0.699763 -0.166395 0.694727
vn -0.690620 -0.238102 0.682899
vn -0.690620 -0.238102 0.682899
vn 0.000068 -0.027690 0.999617
vn 0.000068 -0.027821 0.999613
vn 0.000505 -0.224535 0.974466
vn 0.000504 -0.224208 0.974541
vn 0.706042 -0.020999 0.707859
vn 0.706149 -0.018305 0.707826
vn 0.695017 -0.150875 0.702986
vn 0.692222 -0.171177 0.701090
vn -0.706599 -0.019574 0.707344
vn -0.706600 -0.019708 0.707339
vn -0.699763 -0.166395 0.694727
vn -0.701030 -0.153172 0.696488
s off
g polySurface69polySurface53polySurface52
usemtl lambert4SG
f 10/1/1 9/2/2 7/3/3 1/4/4
f 2/5/5 8/6/6 14/7/7 13/8/8
f 1/4/9 7/3/10 8/6/11 2/5/12
f 6/9/13 5/10/14 3/11/15 4/12/16
f 15/13/17 6/9/18 4/12/19 16/14/20
f 5/10/21 11/15/22 12/16/23 3/11/24
f 8/6/25 7/3/26 5/10/27 6/9/28
f 14/7/29 8/6/30 6/9/31 15/13/32
f 7/3/33 9/2/34 11/15/35 5/10/36
