# This file uses centimeters as units for non-parametric coordinates.

mtllib SM_TUNNEL_DECLINE_RIGHT_WALL_01.mtl
g default
v -404.424500 777.416626 233.642487
v -404.424500 424.938904 217.996185
v -404.424500 533.565491 233.642487
v -404.424500 312.517487 173.037567
v -404.424500 777.416626 139.929993
v -404.424500 533.565491 139.929977
v -404.424500 424.938934 124.283699
v -404.424500 312.517487 79.325066
vt 0.329824 0.375468
vt 0.329824 0.500242
vt 0.000214 0.500242
vt 0.000214 0.375468
vt 0.594220 0.375468
vt 0.594220 0.500242
vt 0.468504 0.500242
vt 0.468504 0.375468
vn -1.000000 0.000000 0.000000
vn -1.000000 0.000000 0.000000
vn -1.000000 0.000000 0.000000
vn -1.000000 0.000000 0.000000
vn -1.000000 -0.000001 0.000000
vn -1.000000 -0.000001 0.000000
vn -1.000000 0.000000 0.000000
vn -1.000000 0.000000 0.000000
vn -1.000000 0.000000 0.000000
vn -1.000000 0.000000 0.000000
vn -1.000000 0.000000 0.000000
vn -1.000000 0.000000 0.000000
s off
g right_wall_01
usemtl SM_TUNNEL_DECLINE_RIGHT_WALL_01_initialShadingGroup2
f 6/1/1 3/2/2 1/3/3 5/4/4
f 8/5/5 4/6/6 2/7/7 7/8/8
f 7/8/9 2/7/10 3/2/11 6/1/12
