# This file uses centimeters as units for non-parametric coordinates.

mtllib SM_TUNNEL_DECLINE_FLOOR_01.mtl
g default
v -406.615173 777.416626 137.744278
v -492.012878 777.416321 137.744278
v -404.424500 777.416626 139.929993
v -492.012878 424.898346 122.098000
v -406.615173 424.972626 122.098000
v -404.424500 424.938934 124.283699
v -492.012878 533.537354 137.744278
v -406.615173 533.588867 137.744278
v -404.424500 533.565491 139.929977
v -406.615173 312.561951 77.139351
v -492.012878 312.464020 77.139351
v -404.424500 312.517487 79.325066
v -494.200745 533.565369 139.929977
v -494.200745 777.416382 139.929993
v -494.200745 424.938751 124.283699
v -494.200745 312.517334 79.325066
vt 0.121730 0.309331
vt 0.008187 0.309331
vt 0.008187 0.000890
vt 0.121730 0.000890
vt 0.127832 0.309331
vt 0.127832 0.000890
vt 0.002060 0.309331
vt 0.002060 0.000890
vt 0.121730 0.599049
vt 0.008187 0.599049
vt 0.008187 0.448283
vt 0.121730 0.448283
vt 0.002060 0.599049
vt 0.002060 0.448283
vt 0.127832 0.599049
vt 0.127832 0.448283
vn 0.000033 -0.044369 0.999015
vn 0.000033 -0.044322 0.999017
vn 0.000000 0.000000 1.000000
vn 0.000000 0.000000 1.000000
vn 0.706214 -0.029722 0.707375
vn 0.706115 -0.033012 0.707327
vn 0.706759 -0.000000 0.707454
vn 0.706759 -0.000000 0.707455
vn -0.706143 -0.032560 0.707321
vn -0.706180 -0.030188 0.707389
vn -0.706306 0.000000 0.707907
vn -0.706306 0.000000 0.707907
vn 0.000375 -0.371317 0.928506
vn 0.000375 -0.371317 0.928506
vn 0.000248 -0.264350 0.964427
vn 0.000248 -0.264472 0.964393
vn -0.682202 -0.271494 0.678890
vn -0.682202 -0.271494 0.678889
vn -0.696220 -0.180189 0.694845
vn -0.693855 -0.198968 0.692082
vn 0.676918 -0.273290 0.683443
vn 0.676918 -0.273290 0.683443
vn 0.690293 -0.201058 0.695033
vn 0.693515 -0.179501 0.697722
vn 0.000248 -0.264472 0.964393
vn 0.000248 -0.264350 0.964427
vn 0.000033 -0.044322 0.999017
vn 0.000033 -0.044369 0.999015
vn -0.693855 -0.198968 0.692082
vn -0.696220 -0.180189 0.694845
vn -0.706180 -0.030188 0.707389
vn -0.706143 -0.032560 0.707321
vn 0.693515 -0.179501 0.697722
vn 0.690293 -0.201058 0.695033
vn 0.706115 -0.033012 0.707327
vn 0.706214 -0.029722 0.707375
s off
g polySurface57polySurface55polySurface54polySurface52
usemtl lambert4SG
f 7/1/1 8/2/2 1/3/3 2/4/4
f 13/5/5 7/1/6 2/4/7 14/6/8
f 8/2/9 9/7/10 3/8/11 1/3/12
f 11/9/13 10/10/14 5/11/15 4/12/16
f 10/10/17 12/13/18 6/14/19 5/11/20
f 16/15/21 11/9/22 4/12/23 15/16/24
f 4/12/25 5/11/26 8/2/27 7/1/28
f 5/11/29 6/14/30 9/7/31 8/2/32
f 15/16/33 4/12/34 7/1/35 13/5/36
