# This file uses centimeters as units for non-parametric coordinates.

mtllib SM_TUNNEL_DECLINE_FLOOR_02.mtl
g default
v -406.615173 256.301971 77.139351
v -492.012878 256.204041 77.139351
v -404.424500 256.257507 79.325066
v -406.615173 -118.908066 -171.807541
v -492.012878 -119.084778 -171.807541
v -404.424500 -118.988419 -169.621826
v -494.200745 -118.988495 -169.621826
v -494.200745 256.257355 79.325066
vt 0.119887 0.599049
vt 0.006343 0.599049
vt 0.006343 0.000890
vt 0.119887 0.000890
vt 0.125989 0.599049
vt 0.125989 0.000890
vt 0.000217 0.599049
vt 0.000217 0.000890
vn 0.000889 -0.552824 0.833298
vn 0.000889 -0.552824 0.833298
vn 0.000889 -0.552824 0.833297
vn 0.000889 -0.552824 0.833298
vn 0.631103 -0.428808 0.646400
vn 0.631103 -0.428808 0.646400
vn 0.631103 -0.428808 0.646400
vn 0.631103 -0.428808 0.646400
vn -0.646387 -0.421818 0.635810
vn -0.646387 -0.421818 0.635810
vn -0.646387 -0.421818 0.635810
vn -0.646386 -0.421818 0.635810
s off
g polySurface63polySurface56polySurface54polySurface52
usemtl lambert4SG
f 5/1/1 4/2/2 1/3/3 2/4/4
f 7/5/5 5/1/6 2/4/7 8/6/8
f 4/2/9 6/7/10 3/8/11 1/3/12
