# This file uses centimeters as units for non-parametric coordinates.

mtllib SM_TUNNEL_DECLINE_LEFT_WALL_03.mtl
g default
v -494.200745 -651.748779 -215.114014
v -494.200623 -651.748779 -121.401489
v -494.200745 -202.867142 -169.621826
v -494.200623 -202.867142 -75.909309
v -494.200745 -305.800171 -205.508179
v -494.200623 -305.800171 -111.795662
v -494.200745 -400.449982 -215.114044
v -494.200745 -400.449982 -121.401505
vt 0.594220 0.375468
vt 0.594220 0.500242
vt 0.329824 0.500242
vt 0.329824 0.375468
vt 0.191630 0.375468
vt 0.191630 0.500242
vt 0.000214 0.500242
vt 0.000214 0.375468
vn 1.000000 0.000001 -0.000001
vn 1.000000 0.000001 -0.000001
vn 1.000000 0.000000 -0.000001
vn 1.000000 0.000000 -0.000001
vn 1.000000 0.000000 -0.000001
vn 1.000000 -0.000001 -0.000001
vn 1.000000 0.000002 -0.000001
vn 1.000000 0.000002 -0.000001
vn 1.000000 0.000000 -0.000001
vn 1.000000 0.000000 -0.000001
vn 1.000000 -0.000001 -0.000001
vn 1.000000 0.000000 -0.000001
s off
g polySurface73polySurface72polySurface70polySurface53polySurface52
usemtl SM_TUNNEL_DECLINE_LEFT_WALL_03_initialShadingGroup
f 2/1/1 1/2/2 7/3/3 8/4/4
f 6/5/5 5/6/6 3/7/7 4/8/8
f 8/4/9 7/3/10 5/6/11 6/5/12
