# This file uses centimeters as units for non-parametric coordinates.

mtllib SM_TUNNEL_DECLINE_CEILING_03.mtl
g default
v -406.615051 -651.625488 -119.215782
v -492.012878 -651.896484 -119.215782
v -492.012878 -202.963425 -73.723587
v -406.615173 -202.786713 -73.723587
v -492.012878 -305.908234 -109.609940
v -406.615173 -305.709930 -109.609940
v -492.012878 -400.568878 -119.215790
v -406.615173 -400.350677 -119.215790
v -404.424377 -651.748779 -121.401489
v -404.424377 -400.449921 -121.401497
v -404.424377 -305.800110 -111.795654
v -404.424500 -202.867065 -75.909309
v -494.200745 -400.449982 -121.401505
v -494.200623 -651.748779 -121.401489
v -494.200623 -305.800171 -111.795662
v -494.200623 -202.867142 -75.909309
vt 0.118925 0.600003
vt 0.118925 0.265960
vt 0.124132 0.265960
vt 0.124132 0.600003
vt 0.000037 0.265960
vt 0.006057 0.265960
vt 0.006057 0.600003
vt 0.000037 0.600003
vt 0.000037 -0.000117
vt 0.006057 -0.000117
vt 0.006057 0.140622
vt 0.000037 0.140622
vt 0.118925 0.140622
vt 0.118925 -0.000117
vt 0.124132 0.140622
vt 0.124132 -0.000117
vn -0.706293 0.000000 -0.707919
vn -0.705684 0.020893 -0.708219
vn -0.705772 0.018430 -0.708200
vn -0.706293 0.000000 -0.707919
vn 0.707141 0.019673 -0.706798
vn 0.707140 0.019576 -0.706802
vn 0.706767 0.000000 -0.707446
vn 0.706767 0.000000 -0.707446
vn 0.000000 0.000000 -1.000000
vn 0.000000 0.000000 -1.000000
vn -0.000068 0.027690 -0.999617
vn -0.000068 0.027821 -0.999613
vn 0.692069 0.237612 -0.681602
vn 0.692069 0.237612 -0.681602
vn 0.700935 0.165827 -0.693680
vn 0.702094 0.153231 -0.695403
vn -0.000505 0.224535 -0.974466
vn -0.000504 0.224208 -0.974541
vn -0.000723 0.329202 -0.944259
vn -0.000723 0.329202 -0.944259
vn -0.695131 0.151192 -0.702804
vn -0.692500 0.170848 -0.700895
vn -0.680729 0.241163 -0.691700
vn -0.680729 0.241163 -0.691700
vn 0.702094 0.153231 -0.695403
vn 0.700935 0.165827 -0.693680
vn 0.707140 0.019576 -0.706802
vn 0.707141 0.019673 -0.706798
vn -0.000068 0.027821 -0.999613
vn -0.000068 0.027690 -0.999617
vn -0.000504 0.224208 -0.974541
vn -0.000505 0.224535 -0.974466
vn -0.705772 0.018430 -0.708200
vn -0.705684 0.020893 -0.708219
vn -0.692500 0.170848 -0.700895
vn -0.695131 0.151192 -0.702804
s off
g polySurface71polySurface70polySurface53polySurface52
usemtl lambert5SG
f 1/1/1 8/2/2 10/3/3 9/4/4
f 13/5/5 7/6/6 2/7/7 14/8/8
f 1/1/9 2/7/10 7/6/11 8/2/12
f 16/9/13 3/10/14 5/11/15 15/12/16
f 6/13/17 5/11/18 3/10/19 4/14/20
f 11/15/21 6/13/22 4/14/23 12/16/24
f 15/12/25 5/11/26 7/6/27 13/5/28
f 8/2/29 7/6/30 5/11/31 6/13/32
f 10/3/33 8/2/34 6/13/35 11/15/36
