# This file uses centimeters as units for non-parametric coordinates.

mtllib SM_TUNNEL_DECLINE_LEFT_WALL_01.mtl
g default
v -494.200745 777.416382 139.929993
v -494.200745 424.938751 124.283699
v -494.200745 533.565369 139.929977
v -494.200745 312.517334 79.325066
v -494.200745 777.416382 233.642487
v -494.200623 533.565308 233.642487
v -494.200623 424.938751 217.996185
v -494.200623 312.517334 173.037567
vt 0.329824 0.500242
vt 0.329824 0.375468
vt 0.594220 0.375468
vt 0.594220 0.500242
vt 0.000214 0.500242
vt 0.000214 0.375468
vt 0.191630 0.375468
vt 0.191630 0.500242
vn 1.000000 0.000000 -0.000001
vn 1.000000 0.000000 -0.000001
vn 1.000000 0.000000 -0.000001
vn 1.000000 0.000000 -0.000001
vn 1.000000 0.000001 -0.000001
vn 1.000000 0.000001 -0.000001
vn 1.000000 0.000001 -0.000001
vn 1.000000 0.000000 -0.000001
vn 1.000000 0.000000 -0.000001
vn 1.000000 0.000001 -0.000001
vn 1.000000 0.000000 -0.000001
vn 1.000000 0.000000 -0.000001
s off
g polySurface61polySurface60polySurface58polySurface55polySurface54polySurface52
usemtl SM_TUNNEL_DECLINE_LEFT_WALL_01_initialShadingGroup2
f 6/1/1 3/2/2 1/3/3 5/4/4
f 8/5/5 4/6/6 2/7/7 7/8/8
f 7/8/9 2/7/10 3/2/11 6/1/12
