# This file uses centimeters as units for non-parametric coordinates.

mtllib SM_TUNNEL_WALL_LEFT.mtl
g default
v -1051.669823 5.922745 -0.089183
v -1051.669762 -291.183319 -0.089183
v -1043.668076 41.846634 -0.089183
v -1028.938149 70.041962 -0.089183
v -1001.283196 84.073669 -0.089183
v -964.530022 88.018005 -0.089183
v -681.226830 88.517456 -0.089183
v -1051.668908 -291.024902 92.962204
v -1051.668999 6.081177 92.962204
v -1043.608666 41.993484 92.962204
v -1028.809609 70.134583 92.962204
v -1001.126519 84.097412 92.962204
v -964.371758 88.019897 92.962204
v -681.068383 88.519318 92.962204
vt 0.593650 0.499341
vt 0.371989 0.499341
vt 0.371989 0.375082
vt 0.593650 0.375081
vt 0.338510 0.499341
vt 0.338510 0.375081
vt 0.300496 0.499341
vt 0.300496 0.375081
vt 0.262075 0.499341
vt 0.262075 0.375081
vt 0.224398 0.499341
vt 0.224398 0.375081
vt 0.001331 0.499341
vt 0.001331 0.375081
vn -1.000000 0.000000 0.000000
vn -1.000000 0.000000 0.000000
vn -1.000000 0.000000 0.000000
vn -1.000000 0.000000 0.000000
vn -0.975903 0.218205 -0.000042
vn -0.975903 0.218205 -0.000042
vn -0.975903 0.218205 -0.000042
vn -0.975903 0.218205 -0.000042
vn -0.885706 0.464247 0.000297
vn -0.885706 0.464247 0.000297
vn -0.885706 0.464247 0.000297
vn -0.885706 0.464247 0.000297
vn -0.451408 0.892318 0.000134
vn -0.451408 0.892318 0.000134
vn -0.451408 0.892318 0.000134
vn -0.451408 0.892318 0.000134
vn -0.106412 0.994322 0.000043
vn -0.106412 0.994322 0.000043
vn -0.106412 0.994322 0.000043
vn -0.106412 0.994322 0.000043
vn -0.001763 0.999999 -0.000017
vn -0.001763 0.999998 -0.000017
vn -0.001763 0.999999 -0.000017
vn -0.001763 0.999998 -0.000017
s off
g polySurface82 polySurface78 polySurface76 polySurface40polySurface18
usemtl SM_TUNNEL_STRAIGHT_RIGHT_WALL_SM_TUNNEL_STRAIGHT_LEFT_WALL_initialShadingGroup
f 8/1/1 9/2/2 1/3/3 2/4/4
f 1/3/5 9/2/6 10/5/7 3/6/8
f 3/6/9 10/5/10 11/7/11 4/8/12
f 4/8/13 11/7/14 12/9/15 5/10/16
f 5/10/17 12/9/18 13/11/19 6/12/20
f 6/12/21 13/11/22 14/13/23 7/14/24
